<mxfile host="app.diagrams.net" modified="2022-05-22T07:19:43.616Z" agent="5.0 (Macintosh; Intel Mac OS X 10_15_7) AppleWebKit/537.36 (KHTML, like Gecko) Chrome/101.0.4951.64 Safari/537.36" etag="I5-H2ED8fxdT5VCmiMhR" version="18.0.5" type="github">
  <diagram id="3228e29e-7158-1315-38df-8450db1d8a1d" name="Page-1">
    <mxGraphModel dx="700" dy="-1096" grid="0" gridSize="10" guides="1" tooltips="1" connect="1" arrows="1" fold="1" page="1" pageScale="1" pageWidth="750" pageHeight="229" background="#EFF1F3" math="0" shadow="0">
      <root>
        <mxCell id="0" />
        <mxCell id="1" parent="0" />
        <mxCell id="3CFoiyuyR96YVoXHcD3G-3" value="" style="verticalLabelPosition=bottom;html=1;verticalAlign=top;align=center;strokeColor=none;fillColor=#4A919B;shape=mxgraph.azure.cloud_services_configuration_file;pointerEvents=1;" vertex="1" parent="1">
          <mxGeometry x="234.25" y="1925" width="47.5" height="50" as="geometry" />
        </mxCell>
        <mxCell id="3CFoiyuyR96YVoXHcD3G-4" value="&lt;font style=&quot;font-size: 14px&quot; color=&quot;#4a919b&quot;&gt;binlog&lt;/font&gt;" style="text;html=1;strokeColor=none;fillColor=none;align=center;verticalAlign=middle;whiteSpace=wrap;rounded=0;fontSize=14;" vertex="1" parent="1">
          <mxGeometry x="228" y="1975" width="60" height="30" as="geometry" />
        </mxCell>
        <mxCell id="3CFoiyuyR96YVoXHcD3G-6" value="" style="shape=flexArrow;endArrow=classic;html=1;rounded=0;strokeColor=none;fillColor=#FDD276;" edge="1" parent="1">
          <mxGeometry width="50" height="50" relative="1" as="geometry">
            <mxPoint x="112" y="1844" as="sourcePoint" />
            <mxPoint x="112.23000000000002" y="1888" as="targetPoint" />
          </mxGeometry>
        </mxCell>
        <mxCell id="3CFoiyuyR96YVoXHcD3G-9" value="" style="shape=flexArrow;endArrow=classic;html=1;rounded=0;strokeColor=none;fillColor=#FDD276;" edge="1" parent="1">
          <mxGeometry width="50" height="50" relative="1" as="geometry">
            <mxPoint x="166" y="1952" as="sourcePoint" />
            <mxPoint x="220" y="1952" as="targetPoint" />
          </mxGeometry>
        </mxCell>
        <mxCell id="3CFoiyuyR96YVoXHcD3G-10" value="写操作" style="text;html=1;strokeColor=none;fillColor=none;align=center;verticalAlign=middle;whiteSpace=wrap;rounded=0;" vertex="1" parent="1">
          <mxGeometry x="46" y="1850" width="60" height="30" as="geometry" />
        </mxCell>
        <mxCell id="3CFoiyuyR96YVoXHcD3G-12" value="写入" style="text;html=1;strokeColor=none;fillColor=none;align=center;verticalAlign=middle;whiteSpace=wrap;rounded=0;" vertex="1" parent="1">
          <mxGeometry x="162" y="1916" width="60" height="30" as="geometry" />
        </mxCell>
        <mxCell id="3CFoiyuyR96YVoXHcD3G-13" value="&lt;font style=&quot;font-size: 20px;&quot; color=&quot;#ffffff&quot;&gt;canal&lt;/font&gt;" style="rounded=1;whiteSpace=wrap;html=1;fillColor=#9AC7BF;strokeColor=none;" vertex="1" parent="1">
          <mxGeometry x="361" y="1924" width="120" height="60" as="geometry" />
        </mxCell>
        <mxCell id="3CFoiyuyR96YVoXHcD3G-15" value="&lt;font color=&quot;#535e80&quot;&gt;elasticsearch&lt;/font&gt;" style="text;html=1;strokeColor=none;fillColor=none;align=center;verticalAlign=middle;whiteSpace=wrap;rounded=0;fontSize=14;" vertex="1" parent="1">
          <mxGeometry x="590.25" y="1995" width="60" height="30" as="geometry" />
        </mxCell>
        <mxCell id="3CFoiyuyR96YVoXHcD3G-16" value="" style="shape=flexArrow;endArrow=classic;html=1;rounded=0;strokeColor=none;fillColor=#FDD276;" edge="1" parent="1">
          <mxGeometry width="50" height="50" relative="1" as="geometry">
            <mxPoint x="297" y="1952" as="sourcePoint" />
            <mxPoint x="350.9999999999999" y="1952" as="targetPoint" />
          </mxGeometry>
        </mxCell>
        <mxCell id="3CFoiyuyR96YVoXHcD3G-17" value="监听" style="text;html=1;strokeColor=none;fillColor=none;align=center;verticalAlign=middle;whiteSpace=wrap;rounded=0;" vertex="1" parent="1">
          <mxGeometry x="293" y="1916" width="60" height="30" as="geometry" />
        </mxCell>
        <mxCell id="3CFoiyuyR96YVoXHcD3G-20" value="" style="shape=image;verticalLabelPosition=bottom;labelBackgroundColor=default;verticalAlign=top;aspect=fixed;imageAspect=0;image=data:image/svg+xml,PHN2ZyB4bWxuczp4bGluaz0iaHR0cDovL3d3dy53My5vcmcvMTk5OS94bGluayIgeG1sbnM9Imh0dHA6Ly93d3cudzMub3JnLzIwMDAvc3ZnIiBoZWlnaHQ9IjIwMCIgd2lkdGg9IjIwMCIgdmVyc2lvbj0iMS4xIiB2aWV3Qm94PSIwIDAgMTAyNCAxMDI0IiBjbGFzcz0iaWNvbiI+PGRlZnM+PHN0eWxlIHR5cGU9InRleHQvY3NzIj5AZm9udC1mYWNlIHsgZm9udC1mYW1pbHk6IGZlZWRiYWNrLWljb25mb250OyBzcmM6IHVybCgiLy9hdC5hbGljZG4uY29tL3QvZm9udF8xMDMxMTU4X3U2OXc4eWh4ZHUud29mZjI/dD0xNjMwMDMzNzU5OTQ0IikgZm9ybWF0KCJ3b2ZmMiIpLCB1cmwoIi8vYXQuYWxpY2RuLmNvbS90L2ZvbnRfMTAzMTE1OF91Njl3OHloeGR1LndvZmY/dD0xNjMwMDMzNzU5OTQ0IikgZm9ybWF0KCJ3b2ZmIiksIHVybCgiLy9hdC5hbGljZG4uY29tL3QvZm9udF8xMDMxMTU4X3U2OXc4eWh4ZHUudHRmP3Q9MTYzMDAzMzc1OTk0NCIpIGZvcm1hdCgidHJ1ZXR5cGUiKTsgfSYjeGE7PC9zdHlsZT48L2RlZnM+PHBhdGggZmlsbD0iIzUzNUU4MCIgZD0iTTUzMy4zMzMzMzMgNzI1LjMzMzMzM2MtMTEzLjA2NjY2NyAwLTIwNi45MzMzMzMtOTMuODY2NjY3LTIwNi45MzMzMzMtMjA2LjkzMzMzM1Y1MTJjMC0xMTAuOTMzMzMzIDg5LjYtMTk4LjQgMTk4LjQtMTk4LjRoMjUxLjczMzMzM2M0Ni45MzMzMzMgMCA2OC4yNjY2NjctNTUuNDY2NjY3IDM2LjI2NjY2Ny04Ny40NjY2NjctNzIuNTMzMzMzLTc0LjY2NjY2Ny0xNzIuOC0xMTcuMzMzMzMzLTI4My43MzMzMzMtMTE1LjItMjA0LjggMi4xMzMzMzMtMzg2LjEzMzMzMyAxNzcuMDY2NjY3LTM5Ni44IDM4MS44NjY2NjctMTAuNjY2NjY3IDIzMC40IDE3Mi44IDQyMi40IDQwMS4wNjY2NjYgNDIyLjQgMTAyLjQgMCAxOTYuMjY2NjY3LTM4LjQgMjY2LjY2NjY2Ny0xMDAuMjY2NjY3IDM2LjI2NjY2Ny0zMiAxNC45MzMzMzMtOTEuNzMzMzMzLTM0LjEzMzMzMy05MS43MzMzMzNMNTMzLjMzMzMzMyA3MjUuMzMzMzMzeiIvPjxwYXRoIGZpbGw9IiM1MzVFODAiIGQ9Ik04MjcuNzMzMzMzIDYxNi41MzMzMzNINTMzLjMzMzMzM2MtNTUuNDY2NjY3IDAtMTAyLjQtNDQuOC0xMDIuNC0xMDIuNFY1MTJjMC01NS40NjY2NjcgNDQuOC0xMDIuNCAxMDIuNC0xMDIuNGgyOTQuNGM1NS40NjY2NjcgMCAxMDIuNCA0NC44IDEwMi40IDEwMi40djIuMTMzMzMzYy0yLjEzMzMzMyA1NS40NjY2NjctNDYuOTMzMzMzIDEwMi40LTEwMi40IDEwMi40eiIvPjwvc3ZnPg==;" vertex="1" parent="1">
          <mxGeometry x="568" y="1895" width="104.5" height="104.5" as="geometry" />
        </mxCell>
        <mxCell id="3CFoiyuyR96YVoXHcD3G-21" value="" style="shape=flexArrow;endArrow=classic;html=1;rounded=0;strokeColor=none;fillColor=#FDD276;" edge="1" parent="1">
          <mxGeometry width="50" height="50" relative="1" as="geometry">
            <mxPoint x="503" y="1952" as="sourcePoint" />
            <mxPoint x="557" y="1952" as="targetPoint" />
          </mxGeometry>
        </mxCell>
        <mxCell id="3CFoiyuyR96YVoXHcD3G-22" value="写入" style="text;html=1;strokeColor=none;fillColor=none;align=center;verticalAlign=middle;whiteSpace=wrap;rounded=0;" vertex="1" parent="1">
          <mxGeometry x="499" y="1916" width="60" height="30" as="geometry" />
        </mxCell>
        <mxCell id="3CFoiyuyR96YVoXHcD3G-23" value="" style="shape=image;verticalLabelPosition=bottom;labelBackgroundColor=default;verticalAlign=top;aspect=fixed;imageAspect=0;image=data:image/svg+xml,PHN2ZyB4bWxuczp4bGluaz0iaHR0cDovL3d3dy53My5vcmcvMTk5OS94bGluayIgeG1sbnM9Imh0dHA6Ly93d3cudzMub3JnLzIwMDAvc3ZnIiBoZWlnaHQ9IjIwMCIgd2lkdGg9IjIwMCIgdmVyc2lvbj0iMS4xIiB2aWV3Qm94PSIwIDAgMTAyNCAxMDI0IiBjbGFzcz0iaWNvbiI+PGRlZnM+PHN0eWxlIHR5cGU9InRleHQvY3NzIj5AZm9udC1mYWNlIHsgZm9udC1mYW1pbHk6IGZlZWRiYWNrLWljb25mb250OyBzcmM6IHVybCgiLy9hdC5hbGljZG4uY29tL3QvZm9udF8xMDMxMTU4X3U2OXc4eWh4ZHUud29mZjI/dD0xNjMwMDMzNzU5OTQ0IikgZm9ybWF0KCJ3b2ZmMiIpLCB1cmwoIi8vYXQuYWxpY2RuLmNvbS90L2ZvbnRfMTAzMTE1OF91Njl3OHloeGR1LndvZmY/dD0xNjMwMDMzNzU5OTQ0IikgZm9ybWF0KCJ3b2ZmIiksIHVybCgiLy9hdC5hbGljZG4uY29tL3QvZm9udF8xMDMxMTU4X3U2OXc4eWh4ZHUudHRmP3Q9MTYzMDAzMzc1OTk0NCIpIGZvcm1hdCgidHJ1ZXR5cGUiKTsgfSYjeGE7PC9zdHlsZT48L2RlZnM+PHBhdGggZmlsbD0iIzRBOTE5QiIgZD0iTTkxNS4yIDg0NC44bC02LjQtOC41MzMzMzNjLTYuNC0xMC42NjY2NjctMTIuOC0xOS4yLTIxLjMzMzMzMy0yNy43MzMzMzQtNi40LTYuNC0yMS4zMzMzMzMtMTQuOTMzMzMzLTIzLjQ2NjY2Ny0yMy40NjY2NjYgNi40IDAgMTAuNjY2NjY3IDAgMTQuOTMzMzMzLTIuMTMzMzM0IDguNTMzMzMzLTIuMTMzMzMzIDE0LjkzMzMzMyAwIDIzLjQ2NjY2Ny0yLjEzMzMzMyA0LjI2NjY2NyAwIDYuNC0yLjEzMzMzMyAxMC42NjY2NjctMi4xMzMzMzN2LTIuMTMzMzM0Yy00LjI2NjY2Ny00LjI2NjY2Ny02LjQtMTAuNjY2NjY3LTEwLjY2NjY2Ny0xNC45MzMzMzMtMTAuNjY2NjY3LTEyLjgtMjEuMzMzMzMzLTIzLjQ2NjY2Ny0zNC4xMzMzMzMtMzQuMTMzMzMzLTYuNC02LjQtMTQuOTMzMzMzLTEwLjY2NjY2Ny0yMS4zMzMzMzQtMTQuOTMzMzM0LTIuMTMzMzMzLTIuMTMzMzMzLTYuNC0yLjEzMzMzMy04LjUzMzMzMy02LjQtMi4xMzMzMzMtNi40LTYuNC0xMi44LTYuNC0xOS4yLTQuMjY2NjY3LTE0LjkzMzMzMy0xMC42NjY2NjctMjkuODY2NjY3LTE0LjkzMzMzMy00NC44LTIuMTMzMzMzLTEwLjY2NjY2Ny00LjI2NjY2Ny0xOS4yLTguNTMzMzM0LTI5Ljg2NjY2Ni0xNy4wNjY2NjctNDAuNTMzMzMzLTQyLjY2NjY2Ny03NC42NjY2NjctNzguOTMzMzMzLTEwMC4yNjY2NjctOC41MzMzMzMtNi40LTE3LjA2NjY2Ny0xMC42NjY2NjctMjcuNzMzMzMzLTEyLjgtNi40IDAtMTAuNjY2NjY3LTIuMTMzMzMzLTE3LjA2NjY2Ny0yLjEzMzMzMy00LjI2NjY2Ny0yLjEzMzMzMy02LjQtNi40LTguNTMzMzMzLTguNTMzMzM0LTEwLjY2NjY2Ny04LjUzMzMzMy0yMy40NjY2NjctMTQuOTMzMzMzLTM2LjI2NjY2Ny0xOS4yLTguNTMzMzMzLTIuMTMzMzMzLTE3LjA2NjY2NyAyLjEzMzMzMy0xOS4yIDEwLjY2NjY2Ny04LjUzMzMzMyAxNC45MzMzMzMgNi40IDMyIDEwLjY2NjY2NyA0MC41MzMzMzMgNC4yNjY2NjcgNi40IDYuNCAxMi44IDguNTMzMzMzIDE5LjIgMi4xMzMzMzMgNC4yNjY2NjcgMi4xMzMzMzMgOC41MzMzMzMgMi4xMzMzMzMgMTIuOCAyLjEzMzMzMyAxMC42NjY2NjcgNC4yNjY2NjcgMjMuNDY2NjY3IDguNTMzMzM0IDM0LjEzMzMzNCAyLjEzMzMzMyA2LjQgNC4yNjY2NjcgMTAuNjY2NjY3IDYuNCAxNC45MzMzMzMgMi4xMzMzMzMgMi4xMzMzMzMgNC4yNjY2NjcgNi40IDQuMjY2NjY2IDguNTMzMzMzLTIuMTMzMzMzIDYuNC02LjQgMTAuNjY2NjY3LTYuNCAxNy4wNjY2NjctMTAuNjY2NjY3IDI1LjYtMTAuNjY2NjY3IDU1LjQ2NjY2Ny0yLjEzMzMzMyA4My4yIDIuMTMzMzMzIDYuNCAxMC42NjY2NjcgMjEuMzMzMzMzIDIxLjMzMzMzMyAxNy4wNjY2NjcgMTAuNjY2NjY3LTQuMjY2NjY3IDEwLjY2NjY2Ny0xNy4wNjY2NjcgMTQuOTMzMzM0LTI5Ljg2NjY2NyAwLTIuMTMzMzMzIDIuMTMzMzMzLTQuMjY2NjY3IDIuMTMzMzMzLTYuNCAyLjEzMzMzMyA2LjQgNC4yNjY2NjcgMTQuOTMzMzMzIDYuNCAyMS4zMzMzMzMgNi40IDEyLjggMTQuOTMzMzMzIDI1LjYgMjUuNiAzNi4yNjY2NjcgNC4yNjY2NjcgNi40IDEwLjY2NjY2NyAxMC42NjY2NjcgMTQuOTMzMzMzIDE3LjA2NjY2NyAxMC42NjY2NjcgOC41MzMzMzMgNC4yNjY2NjcgMTAuNjY2NjY3IDgzLjIgNDkuMDY2NjY2IDAgMCAzMiAxNC45MzMzMzMgNDYuOTMzMzM0IDIxLjMzMzMzNCAxNC45MzMzMzMgNi40IDI5Ljg2NjY2NyAxMC42NjY2NjcgNDQuOCAxNC45MzMzMzMgMi4xMzMzMzMgMCAyLjEzMzMzMy00LjI2NjY2NyAyLjEzMzMzMy02LjR6TTY5My4zMzMzMzMgNTUwLjRjLTIuMTMzMzMzLTguNTMzMzMzLTYuNC0xOS4yLTEwLjY2NjY2Ni0yNS42LTYuNC02LjQgMi4xMzMzMzMtMTIuOCAxMC42NjY2NjYtMTAuNjY2NjY3aDIuMTMzMzM0YzQuMjY2NjY3IDAgNi40IDQuMjY2NjY3IDguNTMzMzMzIDYuNCAwIDIuMTMzMzMzIDIuMTMzMzMzIDIuMTMzMzMzIDIuMTMzMzMzIDQuMjY2NjY3IDIuMTMzMzMzIDEwLjY2NjY2Ny0yLjEzMzMzMyAyMy40NjY2NjctMTIuOCAyNS42eiIvPjxwYXRoIGZpbGw9IiM0QTkxOUIiIGQ9Ik00Ni45MzMzMzMgMjkwLjEzMzMzM2EzNzEuMiAxMTkuNDY2NjY3IDAgMSAwIDc0Mi40IDAgMzcxLjIgMTE5LjQ2NjY2NyAwIDEgMC03NDIuNCAwWiIvPjxwYXRoIGZpbGw9IiM0QTkxOUIiIGQ9Ik02NzguNCA3OTMuNmgtNi40Yy0xNC45MzMzMzMgMC01My4zMzMzMzMtNi40LTc2LjgtNTUuNDY2NjY3di00LjI2NjY2NmMtNi40LTE3LjA2NjY2Ny0xMC42NjY2NjctMzYuMjY2NjY3LTEwLjY2NjY2Ny01NS40NjY2NjctNDkuMDY2NjY3IDguNTMzMzMzLTEwNi42NjY2NjcgMTIuOC0xNjYuNCAxMi44LTE2NC4yNjY2NjcgMC0zMDIuOTMzMzMzLTM0LjEzMzMzMy0zNTItODEuMDY2NjY3LTguNTMzMzMzLTYuNC0xOS4yLTIuMTMzMzMzLTE5LjIgOC41MzMzMzR2MTEzLjA2NjY2NmMwIDY2LjEzMzMzMyAxNjYuNCAxMTkuNDY2NjY3IDM3MS4yIDExOS40NjY2NjcgMTEwLjkzMzMzMyAwIDIxMS4yLTE0LjkzMzMzMyAyNzcuMzMzMzM0LTQwLjUzMzMzMy02LjQtNC4yNjY2NjctMTAuNjY2NjY3LTEwLjY2NjY2Ny0xNy4wNjY2NjctMTcuMDY2NjY3ek00MTguMTMzMzMzIDYzMS40NjY2NjdjNjQgMCAxMjMuNzMzMzMzLTQuMjY2NjY3IDE3NC45MzMzMzQtMTQuOTMzMzM0di0yLjEzMzMzM2MwLTIuMTMzMzMzLTIuMTMzMzMzLTQuMjY2NjY3LTIuMTMzMzM0LTYuNC00LjI2NjY2Ny0xMi44LTYuNC0yNS42LTEwLjY2NjY2Ni00MC41MzMzMzMgMC0yLjEzMzMzMy0yLjEzMzMzMy02LjQtMi4xMzMzMzQtOC41MzMzMzQgMC0yLjEzMzMzMy0yLjEzMzMzMy0yLjEzMzMzMy0yLjEzMzMzMy00LjI2NjY2NnYtNC4yNjY2NjdsLTIuMTMzMzMzLTIuMTMzMzMzYy02LjQtMTIuOC0yNy43MzMzMzMtNDYuOTMzMzMzLTE0LjkzMzMzNC04Ny40NjY2NjctNDQuOCA2LjQtOTEuNzMzMzMzIDguNTMzMzMzLTE0Mi45MzMzMzMgOC41MzMzMzMtMTY0LjI2NjY2NyAwLTMwMi45MzMzMzMtMzQuMTMzMzMzLTM1Mi04MS4wNjY2NjYtOC41MzMzMzMtNi40LTE5LjItMi4xMzMzMzMtMTkuMiA4LjUzMzMzM1Y1MTJjMCA2Ni4xMzMzMzMgMTY2LjQgMTE5LjQ2NjY2NyAzNzMuMzMzMzMzIDExOS40NjY2Njd6Ii8+PC9zdmc+;" vertex="1" parent="1">
          <mxGeometry x="53" y="1885" width="130" height="130" as="geometry" />
        </mxCell>
        <mxCell id="3CFoiyuyR96YVoXHcD3G-24" value="&lt;font color=&quot;#4a919b&quot;&gt;mysql&lt;/font&gt;" style="text;html=1;strokeColor=none;fillColor=none;align=center;verticalAlign=middle;whiteSpace=wrap;rounded=0;fontSize=14;" vertex="1" parent="1">
          <mxGeometry x="76" y="1995" width="60" height="30" as="geometry" />
        </mxCell>
      </root>
    </mxGraphModel>
  </diagram>
</mxfile>
